<svg width="45" height="45" fill="none" xmlns="http://www.w3.org/2000/svg"><path fill-rule="evenodd" clip-rule="evenodd" d="M.993 32.525l31-30.977c1.508-1.168 5.233-2.804 8.071 0s3.307 3.333 3.187 3.247c1.32 1.443 3.167 5.072 0 8.04-3.166 2.97-21.951 21.958-30.948 31.08L2.227 44.999c-.737.034-2.41-.377-2.21-2.268.066-.631.146-1.644.24-2.815.195-2.462.446-5.62.736-7.39zM33.946 3.558L29.628 7.94l7.249 7.268c.805-.79 2.817-2.773 4.42-4.381 1.605-1.608.67-3.35 0-4.02a82.456 82.456 0 01-3.34-3.248c-1.358-1.402-3.24-.584-4.01 0zM5.414 32.164h3.188v4.175h4.112v3.041l-1.748 1.752-5.14.619-2.622-2.629.565-5.206 1.645-1.752zM27.623 9.898L7.882 29.69h3.084v4.226h4.267v3.145l19.69-19.793-7.3-7.37z" fill="#1E396A"/></svg>