<svg xmlns="http://www.w3.org/2000/svg" viewBox="0 0 1920 1080">
  <defs>
    <style>
      .cls-2{fill:#999}
    </style>
  </defs>
  <g id="Calque_2" data-name="Calque 2">
    <g id="Calque_1-2" data-name="Calque 1">
      <path fill="#ccc" d="M0 0h1920v1080H0z"/>
      <path d="M920.37 885.05c14.7-12.81 59.87-80 59.87-80L747.68 840c25.5 30.5 59.41 71.07 83.19 99.55 0-.03 35.51-7.44 89.5-54.5zM1004 766.8c61.35-100.94 136.28-238.08 187.76-314.16 67.3-35.79 202.64-140.11 220.83-165.38s47.44-66.32 20.49-110.6-78.36-37.52-107.65-32.61-185.64 76.83-248.35 120.16C985.38 275 828 278.57 710 286.77L541.57 510.63c5.46 13 9.79 17.36 8.87 21.15s-74 47-74.39 51.73 45 85.59 53.32 87.62 52.74-35.33 56.53-34.41 50.29 77.25 49.31 81c-.88 3.4-55.24 29.1-56.53 34.4s48.88 84.52 53.33 87.62c4.29 3 76.33-43.23 80.12-42.31s5.23 6.25 13.71 16.39l.27-.05-.11-.13 276.21-46.76-.13.21a5.89 5.89 0 011.82-.21zm222.59-520s28.88-9.82 50.09 25-.78 56-.78 56l-36.74 22.36-49.32-81zM769.46 585.28c-21.54-34.66 140.38-143 140.38-143l238.91-148.45 50.06 80.56-238.92 148.4S791 620 769.46 585.28zM528.31 479l136.83-188.59a.25.25 0 000-.07c-44.07 4-78.88 9.15-96.79 16.23-66.6 26.34-89.5 54.48-89.5 54.48C493.05 394.94 528.31 479 528.31 479z" class="cls-2"/>
    </g>
  </g>
</svg>
