<svg xmlns="http://www.w3.org/2000/svg" viewBox="0 0 1920 1080"><defs><style>.cls-1{fill:#ccc;}.cls-2{fill:#999;}</style></defs><title>Placeholder-FM_1</title><g id="Calque_2" data-name="Calque 2"><g id="Calque_1-2" data-name="Calque 1"><rect class="cls-1" width="1920" height="1080"/><path class="cls-2" d="M1065.34,911.47c11.26-15.92,39.27-91.92,39.27-91.92l-217.73,88.9c32,23.62,74.52,55,104.36,77.09C991.24,985.54,1024,970,1065.34,911.47Z"/><path class="cls-2" d="M1118.64,776.82c35.77-112.57,76.19-263.54,108.24-349.62,56.95-50.68,163.82-184,175.52-212.86s.5-106.06-6.21-112.31-85-18-112.3-6.26-162.24,118.5-213,175.42C984.42,303.37,832.37,344,719.61,379.82L608.82,637.12c8.39,11.38,13.61,14.56,13.61,18.46s-60.84,63.15-60.06,67.83S626.3,796,634.88,796s42.9-46.79,46.8-46.79,67.11,63.19,67.06,67.09c-.06,3.51-46.81,41.32-46.81,46.78s67.46,70.59,72.52,72.54c4.87,1.89,64-60,67.86-60s6.55,4.84,17.18,12.68l.26-.11-.14-.1L1117,777.34l-.08.24a5.66,5.66,0,0,1,1.72-.63ZM1212.11,219s25.74-16.37,54.59,12.49,12.47,54.6,12.47,54.6l-30.43,30.41-67-67.09ZM847.9,655.83c-29.12-28.59,102.61-172.16,102.61-172.16L1147.6,283l67.67,66.46L1018.18,550.13S877,684.43,847.9,655.83Z"/><path class="cls-2" d="M588.46,609.51l88.42-215.57,0-.06c-41.88,14.33-74.49,27.53-90.23,38.64-58.5,41.32-74.1,74.08-74.1,74.08C534.35,536.17,588.46,609.51,588.46,609.51Z"/><rect class="cls-2" x="817.69" y="187.06" width="64" height="286" rx="32" ry="32" transform="translate(482.26 -504.15) rotate(45)"/><rect class="cls-2" x="1135.18" y="504.56" width="64" height="286" rx="32" ry="32" transform="translate(799.75 -635.65) rotate(45)"/><rect class="cls-2" x="925.37" y="186.88" width="24" height="111" rx="12" ry="12" transform="translate(445.94 -591.83) rotate(45)"/><rect class="cls-2" x="1242.86" y="504.37" width="24" height="111" rx="12" ry="12" transform="translate(763.43 -723.34) rotate(45)"/><rect class="cls-2" x="1166.14" y="500.49" width="24" height="111" rx="12" ry="12" transform="translate(738.21 -670.22) rotate(45)"/><rect class="cls-2" x="929.26" y="263.6" width="24" height="111" rx="12" ry="12" transform="translate(501.33 -572.11) rotate(45)"/></g></g></svg>