<svg xmlns="http://www.w3.org/2000/svg" viewBox="0 0 1377 1377"><defs><style>.cls-2{fill:#b3b3b3}.cls-3,.cls-4{fill:#999}.cls-4{stroke:#999;stroke-linecap:round;stroke-linejoin:round;stroke-width:24.67px}</style></defs><g id="Calque_2" data-name="Calque 2"><g id="Calque_1-2" data-name="Calque 1"><path fill="#ccc" d="M0 0h1377v1377H0z"/><path class="cls-2" d="M826.85 991.47c10.86-15.37 37.87-88.74 37.87-88.74l-210.13 85.9c30.88 22.78 72 53.09 100.77 74.37 0 0 31.64-15.06 71.49-71.53zM878.24 861.47C912.73 752.8 951.68 607.06 982.58 524c54.94-49 158-177.69 169.33-205.55s.44-102.37-6.05-108.4-82.06-17.29-108.4-6S880.91 318.47 832 373.43c-83.51 31.1-230.26 70.34-339.09 105L386.07 726.84c8.11 11 13.15 14 13.15 17.81s-58.7 61-58 65.51 61.74 70 70 70S452.69 835 456.45 835s64.81 61 64.75 64.73c0 3.39-45.15 39.91-45.15 45.17s65.14 68.11 70 70c4.71 1.82 61.72-58 65.48-58s6.33 4.67 16.6 12.24l.24-.11-.13-.1L876.62 862l-.07.23a5.22 5.22 0 011.65-.61zm90-538.5s24.84-15.82 52.7 12 12.06 52.72 12.06 52.72l-29.35 29.37-64.75-64.73zM616.85 744.81c-28.11-27.59 99-166.23 99-166.23L906 384.78l65.35 64.13L781.18 642.7S645 772.39 616.85 744.81zM366.41 700.2l85.25-208.11-.05-.06c-40.41 13.85-71.88 26.6-87.07 37.33-56.45 39.91-71.49 71.53-71.49 71.53 21.1 28.54 73.36 99.31 73.36 99.31z"/><rect class="cls-2" x="587.55" y="292.32" width="61.78" height="276.06" rx="26.41" ry="26.41" transform="rotate(44.97 618.49 430.426)"/><rect class="cls-2" x="894.15" y="598.65" width="61.78" height="276.06" rx="26.41" ry="26.41" transform="rotate(44.97 925.096 736.793)"/><rect class="cls-2" x="691.46" y="292.11" width="23.17" height="107.14" rx="9.9" ry="9.9" transform="rotate(44.97 703.1 345.74)"/><rect class="cls-2" x="998.05" y="598.44" width="23.17" height="107.14" rx="9.9" ry="9.9" transform="rotate(44.97 1009.711 652.119)"/><rect class="cls-2" x="924" y="594.71" width="23.17" height="107.14" rx="9.9" ry="9.9" transform="rotate(44.97 935.651 648.39)"/><rect class="cls-2" x="695.24" y="366.16" width="23.17" height="107.14" rx="9.9" ry="9.9" transform="rotate(44.97 706.886 419.802)"/><circle class="cls-3" cx="398.85" cy="801.24" r="116.52"/><path class="cls-4" d="M399.89 1167H201.42c0-144.69 89.59-263.75 198.47-263.75S598.37 1022.31 598.37 1167z"/><circle class="cls-3" cx="699.78" cy="710.29" r="116.52"/><path class="cls-4" d="M701.9 1071.19l-198.44-4.6c1.88-142.93 90.87-259.14 198.44-259.14 108.88 0 198.48 119.06 198.48 263.74z"/><circle class="cls-3" cx="1002.87" cy="801.24" r="116.52"/><path class="cls-4" d="M1003.91 1167l-198.44-4.61c1.87-142.92 90.87-259.14 198.44-259.14 108.88 0 198.48 119.06 198.48 263.75z"/></g></g></svg>